<svg width="92" height="40" viewBox="0 0 92 40" fill="none" xmlns="http://www.w3.org/2000/svg">
<g clip-path="url(#clip0_1876_3081)">
<path d="M0.00906071 30.6722V30.5687C-0.0127685 30.4973 -0.0146118 30.4213 0.00372874 30.349C0.0220692 30.2766 0.0599063 30.2105 0.113205 30.1578C0.166503 30.105 0.233264 30.0676 0.306374 30.0494C0.379484 30.0313 0.456199 30.0331 0.528344 30.0547H5.34255C5.41475 30.0324 5.49173 30.0301 5.56516 30.0481C5.63858 30.066 5.70566 30.1034 5.75914 30.1564C5.81261 30.2093 5.85045 30.2757 5.86855 30.3483C5.88665 30.421 5.88433 30.4972 5.86183 30.5687V30.6722C5.87924 30.8168 5.8427 30.9628 5.75906 31.0826C5.63744 31.1659 5.48947 31.2026 5.34255 31.1861H3.5539V36.9557C3.57958 37.0295 3.58397 37.1089 3.56657 37.185C3.54918 37.261 3.51069 37.3308 3.45543 37.3864C3.40017 37.4421 3.33033 37.4813 3.25376 37.4998C3.17719 37.5183 3.09693 37.5153 3.02199 37.4911H2.85972C2.70989 37.5089 2.55866 37.4721 2.43419 37.3876C2.34782 37.2642 2.31058 37.1136 2.32961 36.9647V31.1861H0.526542C0.380167 31.203 0.232619 31.1662 0.111834 31.0826C0.0272561 30.9632 -0.00937917 30.8169 0.00906071 30.6722Z" fill="#58595B"/>
<path d="M10.7918 34.0534C10.7918 34.0837 10.7918 34.2515 10.7684 34.5548C10.7815 34.6319 10.7747 34.711 10.7488 34.7848C10.7229 34.8586 10.6786 34.9248 10.62 34.9773C10.5615 35.0297 10.4906 35.0667 10.4138 35.0849C10.337 35.1031 10.2568 35.1018 10.1806 35.0813H6.97113V35.3329C6.97113 35.7523 7.09915 36.0468 7.35699 36.2252C7.61483 36.4037 8.03674 36.4929 8.61914 36.4929C9.12527 36.4943 9.62967 36.4343 10.1211 36.3145C10.3014 36.2698 10.4312 36.2752 10.4961 36.3323C10.5769 36.4432 10.6117 36.5805 10.5935 36.716V36.8641C10.6085 36.9974 10.578 37.1318 10.507 37.246C10.3965 37.3382 10.2634 37.3998 10.1211 37.4245C9.63093 37.5511 9.12565 37.6111 8.61914 37.6029C7.64187 37.6029 6.92425 37.4066 6.46627 37.014C6.00829 36.6214 5.7793 36.0027 5.7793 35.158V34.1622C5.7793 32.5085 6.63395 31.6816 8.34327 31.6816C9.14383 31.6816 9.75147 31.8815 10.1662 32.2813C10.5845 32.6882 10.7918 33.2699 10.7918 34.0534ZM6.97113 33.8357V34.1212H9.67574V33.8357C9.67574 33.0826 9.22196 32.7054 8.31442 32.7042C7.40687 32.703 6.95911 33.0802 6.97113 33.8357Z" fill="#58595B"/>
<path d="M11.8086 35.2062V34.0872C11.8086 33.3187 12.0376 32.7238 12.4956 32.3026C12.9535 31.8815 13.6147 31.6739 14.4789 31.6798C14.7832 31.6788 15.0863 31.7172 15.3805 31.794C15.5212 31.8136 15.6522 31.876 15.7555 31.9725C15.8253 32.0918 15.8555 32.2297 15.8421 32.3669V32.515C15.8421 32.7131 15.8078 32.838 15.7393 32.8916C15.6708 32.9451 15.5428 32.9451 15.357 32.8916C15.0809 32.8052 14.7918 32.7666 14.5024 32.7773C13.9494 32.7773 13.5612 32.8767 13.3376 33.0754C13.114 33.2735 13.0022 33.6107 13.0022 34.0908V35.1616C13.0022 35.6577 13.1224 36.0027 13.3628 36.1966C13.6033 36.3906 14.0131 36.4875 14.5925 36.4875C14.8914 36.4795 15.1889 36.4448 15.4815 36.384C15.6618 36.3465 15.7916 36.3537 15.8565 36.4072C15.9214 36.4608 15.9557 36.5857 15.9557 36.7731V36.9105C15.9687 37.0476 15.9337 37.1849 15.8565 37.2995C15.7482 37.395 15.6141 37.457 15.4706 37.478C15.1648 37.5551 14.8504 37.5935 14.5348 37.5922C12.7173 37.6017 11.8086 36.8064 11.8086 35.2062Z" fill="#58595B"/>
<path d="M16.9113 36.9661V30.0062C16.8889 29.9347 16.8865 29.8585 16.9046 29.7858C16.9227 29.7132 16.9606 29.6468 17.014 29.5939C17.0675 29.5409 17.1346 29.5035 17.208 29.4856C17.2815 29.4676 17.3584 29.4699 17.4306 29.4922H17.5803C17.6524 29.4706 17.7291 29.4688 17.8023 29.4869C17.8754 29.5051 17.9421 29.5425 17.9954 29.5953C18.0487 29.648 18.0866 29.7141 18.1049 29.7865C18.1232 29.8588 18.1214 29.9348 18.0996 30.0062V32.3958C18.4602 31.9199 19.057 31.6819 19.89 31.6819C20.5427 31.6819 21.0476 31.8479 21.401 32.1798C21.7544 32.5118 21.9419 33.0043 21.9419 33.6592V36.9608C21.9601 37.1063 21.9228 37.2533 21.8373 37.373C21.7166 37.4566 21.569 37.4934 21.4226 37.4765H21.273C21.2006 37.4981 21.1237 37.4998 21.0504 37.4815C20.9771 37.4633 20.9101 37.4257 20.8567 37.3728C20.8032 37.3199 20.7653 37.2536 20.7468 37.1811C20.7284 37.1085 20.7301 37.0324 20.7519 36.9608V33.8466C20.7519 33.4731 20.6557 33.203 20.4634 33.0364C20.2711 32.8699 19.9597 32.786 19.5294 32.7848C19.0486 32.7848 18.688 32.899 18.4476 33.1274C18.2072 33.3559 18.0918 33.7217 18.1014 34.225V36.9661C18.1196 37.1116 18.0823 37.2586 17.9968 37.3784C17.876 37.4619 17.7285 37.4987 17.5821 37.4819H17.4324C17.3601 37.5036 17.2831 37.5055 17.2098 37.4873C17.1365 37.4691 17.0695 37.4315 17.0162 37.3785C16.9628 37.3255 16.925 37.2591 16.9069 37.1864C16.8887 37.1138 16.8909 37.0376 16.9132 36.9661H16.9113Z" fill="#58595B"/>
<path d="M24.3726 33.904V36.9663C24.3908 37.1118 24.3535 37.2588 24.268 37.3786C24.1473 37.4621 23.9997 37.499 23.8533 37.4821H23.7019C23.6296 37.5032 23.5529 37.5046 23.4799 37.4862C23.4069 37.4678 23.3402 37.4301 23.287 37.3773C23.2339 37.3245 23.1961 37.2584 23.1777 37.186C23.1593 37.1137 23.161 37.0378 23.1826 36.9663V33.904C23.1826 32.4263 24.024 31.6875 25.7069 31.6875C26.5688 31.6875 27.2016 31.866 27.6055 32.2229C28.0094 32.5798 28.212 33.1378 28.2132 33.8968V36.9592C28.2349 37.0308 28.2367 37.107 28.2183 37.1795C28.1998 37.2521 28.1618 37.3183 28.1084 37.3712C28.0549 37.4241 27.988 37.4617 27.9147 37.48C27.8414 37.4982 27.7645 37.4965 27.6921 37.475H27.5424C27.396 37.4918 27.2485 37.455 27.1277 37.3714C27.0422 37.2517 27.0049 37.1047 27.0231 36.9592V33.904C27.0231 33.4935 26.927 33.2044 26.7347 33.0367C26.5423 32.8689 26.1997 32.785 25.7069 32.785C25.208 32.785 24.8619 32.8689 24.6683 33.0367C24.4748 33.2044 24.3762 33.4935 24.3726 33.904Z" fill="#58595B"/>
<path d="M31.988 37.6067C31.0792 37.6067 30.4097 37.4051 29.9793 37.0017C29.5466 36.5966 29.332 35.9774 29.332 35.1386V34.1624C29.332 32.517 30.2173 31.6943 31.988 31.6943C32.8883 31.6943 33.5494 31.8984 33.9713 32.3065C34.3933 32.7145 34.6072 33.3332 34.6132 34.1624V35.1457C34.6132 35.9536 34.3914 36.5669 33.9479 36.9857C33.5043 37.4045 32.851 37.6115 31.988 37.6067ZM33.4304 35.1386V34.1624C33.4304 33.661 33.324 33.3058 33.1131 33.1006C32.9021 32.8954 32.5253 32.7919 31.988 32.7919C31.4506 32.7919 31.0594 32.8954 30.8448 33.1006C30.6302 33.3058 30.5221 33.661 30.5221 34.1624V35.1457C30.5221 35.6419 30.6284 35.9916 30.8448 36.1969C31.0612 36.4021 31.4416 36.5056 31.988 36.5056C32.5343 36.5056 32.9111 36.4039 33.1185 36.2022C33.3258 36.0006 33.4304 35.6419 33.4304 35.1386Z" fill="#58595B"/>
<path d="M35.7622 35.8814V29.9922C35.7402 29.9206 35.7383 29.8444 35.7567 29.7719C35.7751 29.6993 35.8131 29.633 35.8666 29.5802C35.9202 29.5274 35.9873 29.49 36.0607 29.472C36.1341 29.4541 36.211 29.4562 36.2833 29.4782H36.4329C36.5051 29.4566 36.5818 29.4548 36.6549 29.473C36.728 29.4911 36.7948 29.5286 36.8481 29.5813C36.9014 29.6341 36.9392 29.7001 36.9575 29.7725C36.9759 29.8449 36.974 29.9208 36.9522 29.9922V35.6476C36.9336 35.8646 36.9773 36.0823 37.0784 36.2758C37.1268 36.3381 37.1904 36.3872 37.2633 36.4184C37.3362 36.4497 37.4159 36.462 37.4949 36.4542C37.6209 36.4383 37.7486 36.4667 37.8555 36.5345C37.9196 36.6492 37.9455 36.781 37.9295 36.9111V37.0253C37.9442 37.1559 37.9116 37.2874 37.8375 37.3965C37.7277 37.4819 37.5959 37.5351 37.4571 37.55C37.4038 37.5615 37.3492 37.5657 37.2948 37.5625C37.0864 37.5746 36.8778 37.5427 36.6829 37.4689C36.488 37.395 36.3112 37.2809 36.1643 37.1342C35.8962 36.8558 35.7622 36.4382 35.7622 35.8814Z" fill="#58595B"/>
<path d="M41.1657 37.6067C40.2569 37.6067 39.5874 37.4051 39.1571 37.0017C38.7261 36.5966 38.5098 35.9774 38.5098 35.1386V34.1624C38.5098 32.517 39.3951 31.6943 41.1657 31.6943C42.066 31.6943 42.7272 31.8984 43.1491 32.3065C43.571 32.7145 43.785 33.3332 43.791 34.1624V35.1457C43.791 35.9536 43.5698 36.5669 43.1274 36.9857C42.6851 37.4045 42.0312 37.6115 41.1657 37.6067ZM42.6082 35.1386V34.1624C42.6082 33.661 42.5036 33.3058 42.2908 33.1006C42.078 32.8954 41.7048 32.7919 41.1657 32.7919C40.6266 32.7919 40.2371 32.8954 40.0225 33.1006C39.808 33.3058 39.698 33.6538 39.698 34.1624V35.1457C39.698 35.6419 39.8044 35.9916 40.0207 36.1969C40.2371 36.4021 40.6176 36.5056 41.1639 36.5056C41.7102 36.5056 42.0871 36.4039 42.2944 36.2022C42.5018 36.0006 42.6082 35.6419 42.6082 35.1386Z" fill="#58595B"/>
<path d="M49.8135 33.7112V33.8057C49.8135 35.1787 48.9859 35.8646 47.3306 35.8634C46.9716 35.8486 46.612 35.8713 46.2578 35.9312C46.1876 35.9432 46.1243 35.9801 46.0795 36.0349C46.0347 36.0897 46.0116 36.1588 46.0144 36.2292C46.0144 36.3577 46.0991 36.4452 46.2686 36.4916C46.6193 36.5507 46.9752 36.5735 47.3306 36.5594C48.3235 36.5594 49.0123 36.6783 49.397 36.9163C49.7738 37.1536 49.9631 37.5748 49.9631 38.1851C49.9631 38.8324 49.7708 39.2892 49.3862 39.5557C49.0015 39.8222 48.3163 39.9555 47.3306 39.9555C46.3161 39.9555 45.6159 39.8299 45.2301 39.5789C44.8514 39.3273 44.6639 38.9347 44.6639 38.4029C44.6485 38.1734 44.6974 37.9441 44.8053 37.7404C44.9131 37.5366 45.0757 37.3663 45.2751 37.2482C45.1349 37.1677 45.0198 37.0505 44.9425 36.9094C44.8652 36.7684 44.8287 36.609 44.837 36.4487C44.837 35.9383 45.1411 35.6106 45.7494 35.4654C45.1255 35.1692 44.8136 34.613 44.8136 33.7968V33.6951C44.7988 33.4124 44.8512 33.1302 44.9664 32.8712C45.0816 32.6121 45.2565 32.3833 45.4771 32.2032C45.9206 31.8462 46.5385 31.6678 47.3306 31.6678C47.7041 31.6596 48.0758 31.7201 48.4269 31.8462L49.085 31.2859C49.171 31.1906 49.2875 31.1275 49.415 31.1074C49.5395 31.126 49.6525 31.1896 49.7323 31.2859L49.8351 31.3894C49.9331 31.4672 50.0007 31.5764 50.0262 31.6981C50.0095 31.8205 49.9447 31.9314 49.8459 32.0069L49.3717 32.5101C49.5259 32.6687 49.6449 32.8575 49.721 33.0644C49.7971 33.2712 49.8286 33.4915 49.8135 33.7112ZM47.3306 37.573C46.9796 37.5808 46.6284 37.5653 46.2795 37.5266C45.9946 37.6456 45.8521 37.8895 45.8521 38.2583C45.8378 38.3732 45.8589 38.4898 45.9126 38.5926C45.9663 38.6955 46.0502 38.7799 46.1532 38.8347C46.3534 38.9311 46.7464 38.9775 47.3306 38.9775C47.9148 38.9775 48.2737 38.9293 48.4738 38.8294C48.6739 38.7294 48.7731 38.5331 48.7731 38.2351C48.7731 37.9371 48.6775 37.7622 48.4846 37.6872C48.2917 37.6123 47.9148 37.573 47.3306 37.573ZM48.6234 33.8057V33.704C48.6349 33.5625 48.6132 33.4203 48.56 33.2884C48.5069 33.1565 48.4237 33.0386 48.3169 32.9438C48.1138 32.7796 47.785 32.6975 47.3306 32.6975C46.4459 32.6975 46.0036 33.033 46.0036 33.704V33.8057C46.0036 34.1627 46.1046 34.4375 46.3083 34.5999C46.5121 34.7623 46.8492 34.8462 47.3306 34.8462C47.8121 34.8462 48.133 34.7641 48.3295 34.5999C48.5261 34.4357 48.6234 34.1787 48.6234 33.8057Z" fill="#58595B"/>
<path d="M51.9479 32.3277L52.8602 36.0076C52.8861 36.1719 52.9579 36.3258 53.0676 36.4519C53.1876 36.5391 53.3358 36.5797 53.4841 36.5662C53.5473 36.5697 53.6106 36.5604 53.6701 36.5389C53.7297 36.5174 53.7841 36.4842 53.8303 36.4412C53.9342 36.3169 54.0021 36.1671 54.0268 36.0076L54.8923 32.3277C54.9121 32.1732 54.9809 32.0289 55.0888 31.9155C55.2236 31.8348 55.381 31.7991 55.5378 31.8138H55.6892C55.9038 31.8138 56.039 31.8477 56.0931 31.9155C56.1472 31.9833 56.1472 32.1225 56.0931 32.3277L54.8436 37.4817C54.6525 38.2812 54.358 38.8826 53.9601 39.2859C53.536 39.7062 52.9722 39.9598 52.3734 39.9997C52.2552 40.0215 52.1331 39.9972 52.0326 39.9319C51.9321 39.8375 51.8683 39.7112 51.8523 39.575L51.818 39.4269C51.7973 39.3749 51.7876 39.3192 51.7894 39.2634C51.7913 39.2075 51.8047 39.1526 51.8288 39.1021C51.9115 39.0195 52.0234 38.9721 52.1408 38.97C52.4925 38.9317 52.8216 38.7792 53.0766 38.5364C53.3463 38.2409 53.5366 37.8832 53.6301 37.4959C53.4582 37.5627 53.2733 37.5901 53.0892 37.5762C52.925 37.59 52.7598 37.5691 52.6044 37.5149C52.449 37.4608 52.3069 37.3746 52.1877 37.2621C51.9911 37.0516 51.827 36.6697 51.6864 36.1129L50.7164 32.3313C50.6623 32.1255 50.6623 31.9881 50.7164 31.9191C50.7704 31.8512 50.8967 31.8173 51.1202 31.8173H51.2699C51.4273 31.8024 51.5854 31.8381 51.7207 31.9191C51.8358 32.0299 51.9148 32.1722 51.9479 32.3277Z" fill="#58595B"/>
<path d="M59.7519 36.7738V36.5954C59.7329 36.4554 59.7704 36.3137 59.8565 36.201C59.925 36.1439 60.0494 36.1457 60.2261 36.201C60.8309 36.3901 61.4617 36.4853 62.0959 36.483C62.6272 36.483 63.0083 36.4235 63.2391 36.3045C63.3512 36.2461 63.4438 36.1566 63.5053 36.0469C63.5668 35.9372 63.5946 35.8121 63.5853 35.687C63.5903 35.5865 63.5745 35.4861 63.5389 35.3919C63.5032 35.2976 63.4484 35.2116 63.3779 35.1392C63.1389 34.9226 62.875 34.7345 62.5918 34.5788L60.9997 33.6276C60.2303 33.1707 59.8457 32.5503 59.8457 31.7663C59.8457 31.1559 60.053 30.7026 60.4677 30.4064C60.8824 30.1102 61.5255 29.9614 62.397 29.9602C62.9406 29.9546 63.4818 30.0317 64.0018 30.1887C64.1503 30.2202 64.2889 30.2869 64.4057 30.3832C64.479 30.4946 64.5115 30.6275 64.4976 30.7597V30.9507C64.4976 31.1559 64.4688 31.2844 64.4111 31.3344C64.3534 31.3844 64.2308 31.3808 64.036 31.3344C63.5061 31.1685 62.9528 31.0878 62.397 31.0953C62.0561 31.0733 61.7145 31.1282 61.3981 31.2559C61.2984 31.3073 61.2161 31.3867 61.1616 31.4842C61.1071 31.5816 61.0828 31.6927 61.0916 31.8037C61.0867 31.9686 61.1396 32.13 61.2413 32.2606C61.4093 32.4344 61.604 32.5807 61.8182 32.6943L63.459 33.6883C63.8703 33.9117 64.2315 34.2152 64.521 34.5806C64.7396 34.9106 64.8487 35.2999 64.833 35.6942C64.833 36.9803 63.9128 37.6239 62.0725 37.6251C61.4429 37.633 60.8158 37.5445 60.2135 37.3628C60.074 37.3302 59.945 37.2633 59.8385 37.1682C59.765 37.0504 59.7345 36.9112 59.7519 36.7738Z" fill="#58595B"/>
<path d="M65.8252 35.2062V34.0872C65.8252 33.3187 66.0542 32.7238 66.5122 32.3026C66.9701 31.8815 67.6313 31.6739 68.4955 31.6798C68.7998 31.6789 69.1029 31.7173 69.3971 31.794C69.5376 31.814 69.6685 31.8763 69.7721 31.9725C69.8418 32.0918 69.8721 32.2297 69.8587 32.3669V32.515C69.8587 32.7131 69.8244 32.838 69.7541 32.8916C69.6838 32.9451 69.5576 32.9451 69.3736 32.8916C69.0975 32.8052 68.8084 32.7666 68.519 32.7773C67.9648 32.7773 67.576 32.8767 67.3524 33.0754C67.1288 33.2735 67.0188 33.6107 67.0188 34.0908V35.1616C67.0188 35.6577 67.139 36.0027 67.3794 36.1966C67.6199 36.3906 68.0298 36.4875 68.6091 36.4875C68.908 36.4795 69.2055 36.4448 69.4981 36.384C69.5588 36.3622 69.6235 36.353 69.688 36.357C69.7525 36.361 69.8155 36.3781 69.8731 36.4072C69.938 36.4608 69.9705 36.5857 69.9705 36.7731V36.9105C69.983 37.0473 69.9487 37.1843 69.8731 37.2995C69.7646 37.3947 69.6306 37.4566 69.4872 37.478C69.1814 37.555 68.867 37.5934 68.5514 37.5922C66.7351 37.6017 65.8264 36.8064 65.8252 35.2062Z" fill="#58595B"/>
<path d="M70.927 36.9662V30.0062C70.9052 29.9348 70.9034 29.8589 70.9217 29.7865C70.94 29.7142 70.9779 29.6481 71.0312 29.5954C71.0845 29.5426 71.1512 29.5052 71.2243 29.487C71.2975 29.4688 71.3742 29.4707 71.4463 29.4923H71.5978C71.6699 29.4707 71.7466 29.4688 71.8197 29.487C71.8929 29.5052 71.9596 29.5426 72.0129 29.5954C72.0662 29.6481 72.1041 29.7142 72.1224 29.7865C72.1407 29.8589 72.1389 29.9348 72.1171 30.0062V32.3958C72.4777 31.9199 73.0739 31.682 73.9057 31.682C74.5596 31.682 75.0639 31.8479 75.4185 32.1799C75.7731 32.5118 75.9498 33.005 75.9486 33.6593V36.9608C75.9708 37.0323 75.973 37.1085 75.9549 37.1811C75.9367 37.2538 75.8989 37.3202 75.8456 37.3732C75.7922 37.4262 75.7253 37.4638 75.6519 37.482C75.5786 37.5002 75.5016 37.4984 75.4293 37.4766H75.2797C75.1311 37.4958 74.9807 37.4595 74.8577 37.3748C74.7722 37.2551 74.7349 37.1081 74.7531 36.9626V33.8467C74.7531 33.4731 74.657 33.2031 74.4647 33.0365C74.2723 32.8699 73.9604 32.7861 73.5289 32.7849C73.048 32.7849 72.6904 32.8991 72.456 33.1275C72.2216 33.3559 72.1062 33.7218 72.1098 34.225V36.9662C72.1315 37.0376 72.1332 37.1135 72.1148 37.1859C72.0964 37.2582 72.0586 37.3243 72.0054 37.3771C71.9522 37.43 71.8856 37.4676 71.8126 37.486C71.7395 37.5045 71.6628 37.5031 71.5906 37.4819H71.4391C71.2927 37.4988 71.1452 37.462 71.0244 37.3784C70.9414 37.2577 70.9067 37.1108 70.927 36.9662Z" fill="#58595B"/>
<path d="M79.737 37.6067C78.8282 37.6067 78.1581 37.4051 77.7265 37.0017C77.2956 36.5966 77.0811 35.9774 77.0811 35.1386V34.1624C77.0811 32.517 77.9664 31.6943 79.737 31.6943C80.6373 31.6943 81.2984 31.8984 81.7204 32.3065C82.1423 32.7145 82.3556 33.3332 82.3604 34.1624V35.1457C82.3604 35.9536 82.1393 36.5669 81.6969 36.9857C81.2546 37.4045 80.6013 37.6115 79.737 37.6067ZM81.1794 35.1386V34.1624C81.1794 33.661 81.0731 33.3058 80.8621 33.1006C80.6511 32.8954 80.2743 32.7919 79.737 32.7919C79.1997 32.7919 78.8084 32.8954 78.5938 33.1006C78.3793 33.3058 78.2693 33.661 78.2693 34.1624V35.1457C78.2693 35.6419 78.3775 35.9922 78.5938 36.1969C78.8102 36.4015 79.1912 36.5044 79.737 36.5056C80.2839 36.5056 80.6608 36.4045 80.8675 36.2022C81.0743 36 81.1782 35.6454 81.1794 35.1386Z" fill="#58595B"/>
<path d="M86.0368 37.6067C85.128 37.6067 84.4579 37.4051 84.0264 37.0017C83.5954 36.5966 83.3809 35.9774 83.3809 35.1386V34.1624C83.3809 32.517 84.2662 31.6943 86.0368 31.6943C86.9371 31.6943 87.5982 31.8984 88.0202 32.3065C88.4421 32.7145 88.6554 33.3332 88.6603 34.1624V35.1457C88.6603 35.9536 88.4391 36.5669 87.9967 36.9857C87.5544 37.4045 86.9011 37.6115 86.0368 37.6067ZM87.4792 35.1386V34.1624C87.4792 33.661 87.3729 33.3058 87.1619 33.1006C86.9509 32.8954 86.5741 32.7919 86.0368 32.7919C85.4995 32.7919 85.1082 32.8954 84.8936 33.1006C84.6791 33.3058 84.5691 33.661 84.5691 34.1624V35.1457C84.5691 35.6419 84.6773 35.9922 84.8936 36.1969C85.11 36.4015 85.4911 36.5044 86.0368 36.5056C86.5777 36.5056 86.96 36.4039 87.1673 36.2022C87.3747 36.0006 87.4792 35.6419 87.4792 35.1386Z" fill="#58595B"/>
<path d="M89.8235 35.8814V29.9922C89.8017 29.9208 89.7998 29.8449 89.8182 29.7725C89.8365 29.7001 89.8744 29.6341 89.9277 29.5813C89.981 29.5286 90.0477 29.4911 90.1208 29.473C90.1939 29.4548 90.2707 29.4566 90.3428 29.4782H90.4925C90.5647 29.4562 90.6417 29.4541 90.7151 29.472C90.7884 29.49 90.8555 29.5274 90.9091 29.5802C90.9626 29.633 91.0006 29.6993 91.019 29.7719C91.0375 29.8444 91.0355 29.9206 91.0135 29.9922V35.6476C90.9949 35.8646 91.0387 36.0823 91.1398 36.2758C91.1881 36.3381 91.2517 36.3872 91.3246 36.4184C91.3975 36.4497 91.4772 36.462 91.5563 36.4542C91.6823 36.4383 91.8099 36.4667 91.9169 36.5345C91.9826 36.6486 92.0092 36.7808 91.9926 36.9111V37.0253C92.0073 37.1559 91.9747 37.2874 91.9007 37.3965C91.7902 37.4819 91.6578 37.5351 91.5184 37.55C91.4658 37.5616 91.4117 37.5658 91.3579 37.5625C91.1493 37.5745 90.9405 37.5426 90.7453 37.4688C90.55 37.3949 90.3729 37.2809 90.2256 37.1342C89.9575 36.8558 89.8235 36.4382 89.8235 35.8814Z" fill="#58595B"/>
<path d="M16.8133 8.10742C14.4368 8.10742 12.7636 8.87301 11.835 10.3846C10.9064 8.8748 9.22595 8.10742 6.85851 8.10742C2.30756 8.10742 0.00683594 10.2918 0.00683594 14.6016V23.4032C0.00683594 24.0332 0.115021 24.4472 0.340406 24.6721C0.56579 24.8969 0.985906 25.0022 1.62239 25.0022H2.05513C2.69161 25.0022 3.10993 24.8934 3.33531 24.6721C3.56069 24.4508 3.66888 24.0332 3.66888 23.4032V14.6034C3.66888 13.4594 3.90328 12.6492 4.36486 12.1942C4.82645 11.7391 5.66488 11.5053 6.86573 11.5053C8.06657 11.5053 8.89959 11.7373 9.34856 12.1924C9.79752 12.6474 10.0283 13.4594 10.0283 14.6034V23.405C10.0283 24.035 10.1365 24.4508 10.3619 24.6739C10.5873 24.8969 11.0056 25.004 11.6439 25.004H11.9756C12.6121 25.004 13.0304 24.8951 13.2558 24.6739C13.4812 24.4526 13.593 24.035 13.593 23.405V14.6034C13.593 13.4808 13.8364 12.676 14.3142 12.2102C14.792 11.7444 15.6395 11.4964 16.8169 11.4964C17.9943 11.4964 18.8508 11.7284 19.3015 12.1834C19.7523 12.6385 19.9777 13.4487 19.9777 14.5944V23.3961C19.9777 24.026 20.0877 24.4419 20.313 24.6649C20.5384 24.888 20.9585 24.9951 21.595 24.9951H22.0278C22.6661 24.9951 23.0844 24.8862 23.3097 24.6631C23.5351 24.4401 23.6451 24.026 23.6451 23.3961V14.6034C23.6451 12.4333 23.079 10.7897 21.9647 9.7207C20.8504 8.65172 19.114 8.10742 16.8133 8.10742Z" fill="#2C2B2B"/>
<path d="M28.8582 1.97542C28.5642 1.97318 28.2728 2.03026 28.0019 2.14317C27.731 2.25608 27.4861 2.42246 27.2823 2.63215C27.0672 2.82647 26.8962 3.06375 26.7806 3.3283C26.6649 3.59286 26.6073 3.87869 26.6115 4.1669C26.6093 4.45872 26.6673 4.74792 26.782 5.01676C26.8967 5.28559 27.0657 5.52837 27.2787 5.73021C27.6999 6.13636 28.2665 6.36093 28.8546 6.35482C29.1419 6.35981 29.4272 6.30685 29.6932 6.19916C29.9592 6.09146 30.2002 5.9313 30.4016 5.72843C30.6146 5.52659 30.7836 5.2838 30.8983 5.01497C31.013 4.74614 31.071 4.45694 31.0687 4.16512C31.0528 3.58888 30.8144 3.04057 30.4026 2.63296C29.9907 2.22534 29.4368 1.98939 28.8546 1.97363L28.8582 1.97542Z" fill="#2C2B2B"/>
<path d="M29.0602 8.33203H28.6292C27.9927 8.33203 27.5744 8.43911 27.349 8.66218C27.1237 8.88526 27.0137 9.30107 27.0137 9.93103V23.4048C27.0137 24.0347 27.1237 24.4505 27.349 24.6718C27.5744 24.8931 27.9927 25.0038 28.6292 25.0038H29.0602C29.7003 25.0038 30.1186 24.8949 30.3421 24.6718C30.5657 24.4487 30.6775 24.0347 30.6775 23.4048V9.93103C30.6775 9.30107 30.5675 8.88704 30.3421 8.66218C30.1168 8.43732 29.6948 8.33203 29.0602 8.33203Z" fill="#2C2B2B"/>
<path d="M41.4005 8.10742C36.5196 8.10742 34.0439 10.2918 34.0439 14.6016V23.4032C34.0439 24.0332 34.1539 24.4472 34.3775 24.6721C34.6011 24.8969 35.023 25.0022 35.6613 25.0022H36.0922C36.7287 25.0022 37.147 24.8934 37.3724 24.6721C37.5978 24.4508 37.7078 24.0332 37.7078 23.4032V14.6034C37.7078 13.4612 37.9728 12.6528 38.4957 12.1995C39.0186 11.7462 39.9995 11.5053 41.4005 11.5053C42.8015 11.5053 43.7445 11.7391 44.2728 12.1995C44.8011 12.6599 45.0607 13.463 45.0607 14.6034V23.405C45.0607 24.035 45.1707 24.449 45.3961 24.6739C45.6215 24.8987 46.038 25.004 46.6763 25.004H47.109C47.7455 25.004 48.1638 24.8951 48.3892 24.6739C48.6146 24.4526 48.7246 24.035 48.7246 23.405V14.6034C48.7246 12.4101 48.1241 10.7611 46.9413 9.70107C45.7585 8.64102 43.8977 8.10742 41.4005 8.10742Z" fill="#2C2B2B"/>
<path d="M66.4743 0.332102C66.2489 0.109027 65.8288 0.00195312 65.1941 0.00195312H64.7956C64.1574 0.00195312 63.739 0.109027 63.5137 0.332102C63.2883 0.555177 63.1783 0.970989 63.1783 1.60095V9.98857C62.219 8.73756 60.6323 8.1076 58.4506 8.1076C53.7626 8.1076 51.3916 10.5579 51.3916 15.3888V18.2138C51.3916 22.9573 53.9898 25.3629 59.1124 25.3629C61.588 25.3629 63.5101 24.7508 64.8227 23.5408C66.1353 22.3309 66.8061 20.5373 66.8061 18.2138V1.59917C66.8079 0.969205 66.6997 0.556962 66.4743 0.332102ZM63.1783 15.3227V18.146C63.1783 19.529 62.879 20.5159 62.2876 21.0799C61.6962 21.6438 60.6179 21.9329 59.0871 21.9329C57.5563 21.9329 56.4907 21.6527 55.9209 21.0977C55.3511 20.5427 55.0627 19.5504 55.0627 18.146V15.3263C55.0627 13.92 55.3566 12.9225 55.9371 12.3585C56.5177 11.7946 57.5797 11.5055 59.0871 11.5055C60.5945 11.5055 61.6926 11.7928 62.2876 12.3585C62.8826 12.9242 63.1783 13.9218 63.1783 15.3263V15.3227Z" fill="#2C2B2B"/>
<path d="M82.3521 16.4362L87.2655 24.1421C87.3195 24.226 87.3497 24.3229 87.3529 24.4224C87.3562 24.5219 87.3323 24.6204 87.2838 24.7076C87.2353 24.7949 87.164 24.8676 87.0773 24.9181C86.9907 24.9687 86.8919 24.9953 86.7913 24.9951H86.0863C85.8734 24.9954 85.6639 24.9423 85.4773 24.8409C85.2906 24.7395 85.1329 24.593 85.0189 24.4151L80.0767 16.711C79.9628 16.5323 79.9023 16.3253 79.9023 16.114C79.9023 15.9028 79.9628 15.6958 80.0767 15.5171L89.6636 0.579996C89.7777 0.40206 89.9353 0.255571 90.122 0.154163C90.3086 0.0527549 90.5181 -0.000275901 90.731 1.07945e-06H91.436C91.5365 5.66071e-05 91.6352 0.0267604 91.7217 0.0773393C91.8083 0.127918 91.8796 0.200525 91.9282 0.287605C91.9767 0.374685 92.0009 0.47306 91.998 0.572499C91.9952 0.671938 91.9655 0.768809 91.912 0.853039L82.3558 15.8437C82.2991 15.9322 82.2687 16.0346 82.268 16.1394C82.2674 16.2442 82.2965 16.347 82.3521 16.4362Z" fill="#E31F26"/>
<path d="M77.7051 9.46538C77.7 9.67744 77.63 9.88296 77.5042 10.0547C77.3784 10.2264 77.2028 10.3562 77.0008 10.4269C76.7987 10.4976 76.5797 10.5057 76.3728 10.4504C76.166 10.395 75.981 10.2786 75.8425 10.1168C75.8409 10.1158 75.839 10.1153 75.8371 10.1153C75.8352 10.1153 75.8333 10.1158 75.8317 10.1168L69.896 0.863617C69.8421 0.779484 69.812 0.682592 69.8089 0.583039C69.8057 0.483486 69.8296 0.384918 69.878 0.297611C69.9265 0.210303 69.9977 0.137453 70.0842 0.0866536C70.1708 0.0358548 70.2695 0.00896586 70.3702 0.00879256H71.1725C71.3864 0.00829209 71.5969 0.0615814 71.7842 0.163657C71.9715 0.265732 72.1296 0.413248 72.2436 0.592357L77.5915 8.97997C77.6712 9.1293 77.7104 9.29657 77.7051 9.46538Z" fill="#E31F26"/>
<path d="M79.5948 19.5855C79.6256 19.725 79.6279 19.8691 79.6016 20.0095C79.5753 20.1499 79.5209 20.2836 79.4416 20.4028L76.8884 24.4111C76.7746 24.5899 76.6169 24.7373 76.4299 24.8393C76.2429 24.9414 76.0328 24.9948 75.8192 24.9946H75.015C74.9144 24.9948 74.8157 24.9683 74.729 24.9177C74.6424 24.8671 74.5711 24.7944 74.5226 24.7072C74.4741 24.6199 74.4502 24.5214 74.4534 24.4219C74.4566 24.3224 74.4868 24.2256 74.5408 24.1416C75.5704 22.5354 77.6926 19.2304 77.7106 19.2C77.8302 19.0378 77.9945 18.913 78.1838 18.8407C78.3731 18.7683 78.5794 18.7515 78.7782 18.7922C78.9769 18.8328 79.1596 18.9292 79.3044 19.0699C79.4492 19.2106 79.5501 19.3896 79.5948 19.5855Z" fill="#E31F26"/>
<path d="M86.8125 1.18259e-06C86.9131 -0.0002043 87.0119 0.0263717 87.0986 0.0769473C87.1852 0.127523 87.2565 0.200234 87.305 0.287461C87.3535 0.374687 87.3774 0.473218 87.3742 0.572725C87.371 0.672232 87.3408 0.769053 87.2867 0.853039C86.2572 2.45918 84.135 5.76425 84.1169 5.79459C84.0162 5.93094 83.8834 6.04101 83.7302 6.11531C83.5769 6.18961 83.4076 6.22592 83.237 6.22111C82.9865 6.20975 82.7477 6.11259 82.5616 5.94625C82.3754 5.7799 82.2534 5.55471 82.2165 5.30918C82.1843 5.0588 82.2444 4.80531 82.386 4.59534L84.9391 0.590703C85.0529 0.41185 85.2107 0.264495 85.3977 0.162433C85.5847 0.0603715 85.7948 0.00694026 86.0084 0.00713838L86.8125 1.18259e-06Z" fill="#E31F26"/>
<path d="M81.73 9.51191L72.1647 24.4151C72.0507 24.593 71.893 24.7395 71.7064 24.8409C71.5198 24.9423 71.3102 24.9954 71.0973 24.9951H70.3923C70.2918 24.995 70.1932 24.9683 70.1066 24.9177C70.0201 24.8672 69.9488 24.7946 69.9002 24.7075C69.8516 24.6204 69.8275 24.522 69.8303 24.4226C69.8331 24.3232 69.8628 24.2263 69.9163 24.1421L79.451 9.19247C79.5075 9.10345 79.5374 9.00046 79.5374 8.89533C79.5374 8.79021 79.5075 8.68721 79.451 8.5982L74.5123 0.853039C74.4589 0.768809 74.4292 0.671938 74.4263 0.572499C74.4235 0.47306 74.4476 0.374685 74.4962 0.287605C74.5448 0.200525 74.6161 0.127918 74.7026 0.0773393C74.7892 0.0267604 74.8878 5.66071e-05 74.9884 1.07945e-06H75.6934C75.9063 -0.000275901 76.1158 0.0527549 76.3024 0.154163C76.489 0.255571 76.6467 0.40206 76.7608 0.579996L81.73 8.31801C81.8448 8.49641 81.9057 8.7035 81.9057 8.91496C81.9057 9.12643 81.8448 9.33351 81.73 9.51191Z" fill="#E31F26"/>
<path d="M91.4072 24.9954H90.6048C90.3913 24.9956 90.1811 24.9422 89.9941 24.8401C89.8071 24.738 89.6494 24.5907 89.5356 24.4118L84.1859 16.0242C84.1109 15.8802 84.072 15.7204 84.0723 15.5584C84.0724 15.3442 84.139 15.1351 84.263 14.9594C84.387 14.7837 84.5624 14.6499 84.7656 14.576C84.9688 14.5021 85.19 14.4916 85.3994 14.5461C85.6088 14.6005 85.7963 14.7171 85.9366 14.8803L91.8868 24.1459C91.9401 24.2302 91.9696 24.3272 91.9721 24.4266C91.9746 24.526 91.95 24.6243 91.901 24.7111C91.852 24.798 91.7803 24.8702 91.6934 24.9202C91.6065 24.9702 91.5077 24.9962 91.4072 24.9954Z" fill="#E31F26"/>
</g>
<defs>
<clipPath id="clip0_1876_3081">
<rect width="92" height="40" fill="white"/>
</clipPath>
</defs>
</svg>
